<svg width="487" height="529" viewBox="0 0 487 529" fill="none" xmlns="http://www.w3.org/2000/svg">
<path d="M484.889 172.206C483.217 173.952 482.159 175.122 481.044 176.236C465.389 191.854 449.733 207.454 434.078 223.054C421.133 235.943 408.208 248.85 395.245 261.72C390.212 266.715 388.336 272.621 389.971 279.548C393.574 294.832 397.232 310.079 400.853 325.363C405.849 346.405 410.826 367.465 415.822 388.506C416.602 391.756 417.363 395.024 418.273 398.85C416.769 398.163 415.748 397.754 414.801 397.234C397.882 388.19 380.964 379.146 364.064 370.102C346.328 360.612 328.611 351.103 310.894 341.613C304.227 338.048 297.801 338.196 291.561 342.69C278.153 352.329 264.726 361.949 251.299 371.55C236.349 382.247 221.399 392.907 206.431 403.586C205.966 403.92 205.446 404.18 204.425 404.793C204.908 403.493 205.131 402.657 205.502 401.914C208.344 396.306 211.278 390.772 214.026 385.107C215.011 383.064 216.756 381.969 218.428 380.762C233.34 370.027 248.272 359.312 263.203 348.596C270.186 343.582 277.15 338.512 284.17 333.516C294.291 326.292 304.896 325.233 315.983 331.139C337.321 342.505 358.641 353.926 379.979 365.31C386.126 368.597 392.274 371.903 398.439 375.172C399.034 375.487 399.702 375.673 400.779 376.082C400.575 374.745 400.501 373.742 400.278 372.776C394.224 347.315 388.151 321.872 382.078 296.411C381.019 291.991 380.035 287.571 378.995 283.151C376.172 271.284 379.069 261.144 387.798 252.527C406.425 234.141 424.94 215.626 443.512 197.166C448.303 192.412 453.039 187.62 457.812 182.829C458.295 182.346 458.74 181.826 459.464 181.027C458.443 180.73 457.756 180.396 457.032 180.303C441.58 178.409 426.11 176.552 410.641 174.657C396.341 172.912 382.041 171.11 367.722 169.346C364.844 168.993 361.947 168.659 359.068 168.362C347.74 167.21 339.401 161.713 334.647 151.239C325.417 130.904 316.28 110.531 307.05 90.1952C302.11 79.3125 297.059 68.504 291.84 57.2126C291.339 58.2526 290.986 58.9026 290.707 59.5898C283.873 76.0068 277.039 92.4424 270.223 108.859C264.745 122.064 259.34 135.305 253.787 148.491C252.58 151.369 251.206 154.266 249.405 156.792C244.446 163.719 237.37 167.266 229.069 168.325C202.549 171.705 176.011 174.973 149.491 178.297C144.551 178.91 139.63 179.635 133.928 180.415C157.607 201.196 180.784 221.531 203.942 241.867C203.868 242.09 203.775 242.331 203.701 242.554C199.801 242.554 195.882 242.35 192.001 242.61C188.621 242.833 186.169 241.663 183.644 239.453C159.445 218.17 135.136 197.036 110.844 175.846C109.73 174.862 108.634 173.84 107 172.355C109.637 171.927 111.624 171.556 113.63 171.315C137.03 168.288 160.43 165.26 183.848 162.27C198.501 160.395 213.135 158.556 227.788 156.736C234.492 155.9 239.283 152.409 241.939 146.281C246.619 135.509 251.113 124.645 255.626 113.818C266.026 88.8024 276.407 63.7869 286.789 38.7528C288.2 35.3357 289.593 31.9 291.209 28C291.84 29.0957 292.249 29.7086 292.564 30.3771C303.076 53.4427 313.568 76.5268 324.043 99.5923C330.97 114.839 337.915 130.068 344.768 145.352C347.832 152.205 352.791 156.049 360.405 156.94C385.458 159.875 410.473 163.069 435.526 166.152C451.665 168.139 467.822 170.07 485 172.15L484.889 172.206Z" fill="#0D6FAD"/>
<path d="M70.9992 195C81.8831 204.652 92.1323 214.117 102.811 223.041C107.105 226.625 107.217 229.668 104.528 234.093C100.832 240.141 97.621 246.47 93.3458 254.236C97.901 254.498 101.075 254.834 104.267 254.834C142.538 254.871 180.828 255.916 219.043 254.498C246.561 253.49 255.69 278.618 245.478 297.492C221.956 340.916 200.449 385.441 178.084 429.5C171.326 442.81 160.647 447.907 149.502 443.389C137.46 438.498 133.447 428.267 138.114 413.09C147.579 382.211 157.268 351.389 166.864 320.529C167.405 318.793 167.853 317.02 168.675 314.107C164.773 313.921 161.58 313.641 158.369 313.641C115.132 313.603 71.8766 313.529 28.6396 313.697C17.6623 313.734 8.17849 311.475 2.87653 300.722C-2.63078 289.539 0.169546 279.775 7.87978 270.628C29.0689 245.443 50.0901 220.091 70.9992 195.037V195Z" fill="#FD5AF7"/>
<path d="M414.098 163.102C413.097 163.136 412.017 163.654 411.19 162.629C412.199 162.539 413.245 162.238 414.098 163.102Z" fill="#8A8A8A"/>
<path d="M401.708 161.514C401.135 161.967 400.628 161.939 400.213 161.298C400.744 161.137 401.252 161.144 401.708 161.514Z" fill="#8A8A8A"/>
<path opacity="0.75" d="M400.472 376.161C385.822 368.361 371.752 360.871 357.672 353.371C343.442 345.791 329.202 338.211 314.982 330.601C304.822 325.171 294.692 325.271 285.232 331.771C269.182 342.781 253.422 354.231 237.542 365.481C230.242 370.651 222.922 375.811 214.672 381.641C215.242 379.661 215.362 378.641 215.802 377.781C228.992 351.861 242.182 325.951 255.422 300.061C268.772 273.961 253.252 241.041 220.782 241.961C220.452 241.961 220.112 241.961 219.782 241.961C208.082 241.961 197.859 237.991 189.112 230.051C188.102 229.131 187.542 227.701 186.782 226.511C188.052 226.191 189.382 225.461 190.572 225.631C194.352 226.181 198.102 226.961 201.822 227.841C209.352 229.621 216.882 231.431 224.362 233.421C227.352 234.221 230.262 235.401 233.112 236.631C243.842 241.281 255.012 245.201 265.042 251.061C270.732 254.381 276.402 255.391 282.382 256.521C282.862 256.611 283.612 256.631 283.772 256.931C287.922 264.671 296.362 260.791 302.342 263.741C307.062 266.071 312.402 267.141 317.492 268.721C320.752 269.731 324.032 270.681 327.322 271.591C328.112 271.811 329.132 271.491 329.772 271.871C339.852 277.921 351.672 279.561 362.102 284.581C367.152 287.011 371.722 290.101 377.602 290.501C378.952 290.591 380.882 292.911 381.282 294.511C387.862 320.941 394.242 347.421 400.642 373.901C400.752 374.341 400.582 374.851 400.462 376.141L400.472 376.161Z" fill="url(#paint0_linear_5_1136)"/>
<path d="M339.468 343.353C339.948 343.405 340.466 343.388 340.658 343.988C340.123 344.039 339.608 344.049 339.468 343.353Z" fill="#7AC3EA"/>
<path d="M387.95 314.623C387.144 314.366 387.275 313.745 387.367 313.135C388.005 313.457 387.984 314.037 387.95 314.623Z" fill="#58B4E7"/>
<path d="M338.604 342.74C338.967 342.74 339.197 342.921 339.313 343.257C338.895 343.333 338.713 343.082 338.604 342.74Z" fill="#7AC3EA"/>
<path d="M393.378 337.242C392.936 337.105 392.771 336.807 392.864 336.358C393.217 336.546 393.412 336.827 393.378 337.242Z" fill="#7AC3EA"/>
<path d="M389.25 319.434C388.845 319.307 388.667 319.037 388.722 318.615C389.071 318.776 389.277 319.03 389.25 319.434Z" fill="#58B4E7"/>
<path d="M388.564 316.691C388.163 316.567 387.981 316.3 388.036 315.878C388.386 316.036 388.591 316.29 388.564 316.691Z" fill="#58B4E7"/>
<path d="M137.545 261.492C159.235 261.492 180.925 261.422 202.625 261.532C210.405 261.572 218.195 261.882 225.965 262.342C236.585 262.972 244.845 275.292 241.825 286.642C240.405 291.992 237.765 297.082 235.265 302.082C227.645 317.342 219.865 332.532 212.065 347.702C198.895 373.302 185.635 398.862 172.445 424.462C170.115 428.982 167.325 432.782 162.255 434.762C153.635 438.122 144.335 433.082 143.735 423.902C143.445 419.372 143.875 414.532 145.225 410.222C150.365 393.792 156.245 377.592 161.415 361.172C165.375 348.592 169.055 335.902 172.135 323.092C174.015 315.262 168.495 307.872 160.525 307.282C148.055 306.352 135.525 306.132 123.015 305.732C116.485 305.522 109.955 305.452 103.415 305.502C93.8151 305.582 84.2251 305.842 74.6251 305.982C59.6051 306.192 44.5851 306.452 29.5651 306.502C23.4451 306.522 17.6851 305.802 12.7751 300.952C7.02506 295.282 6.56506 285.282 10.9451 279.582C19.3351 268.682 28.1651 258.122 36.8951 247.492C45.0851 237.512 53.5251 227.732 61.5951 217.652C66.7051 211.262 70.8651 208.532 75.4351 210.652C78.4951 212.072 81.0051 214.722 83.6651 216.932C86.2151 219.052 88.5451 221.452 91.1751 223.462C95.1251 226.482 96.2351 230.262 94.8751 234.902C93.9951 237.922 92.9251 240.892 92.1251 243.942C90.2451 251.182 93.0251 257.052 100.205 259.302C104.995 260.802 110.145 261.462 115.185 261.732C122.625 262.122 130.105 261.832 137.565 261.832C137.565 261.722 137.565 261.612 137.565 261.492H137.545Z" fill="#FC05FA"/>
<path d="M260.598 269.443C261.311 269.703 261.14 270.314 261.157 270.852C260.543 270.55 260.519 270.019 260.598 269.443Z" fill="#97CEEE"/>
<g opacity="0.51">
<path d="M419.819 398.691C417.889 390.381 416.169 382.831 414.369 375.311C406.909 344.141 399.529 312.951 391.889 281.831C389.759 273.161 391.889 266.401 398.239 260.211C417.429 241.531 436.359 222.591 455.409 203.761C464.629 194.641 473.869 185.531 483.119 176.431C483.909 175.661 484.779 174.971 486.089 173.831V214.761C485.139 215.751 483.919 217.081 482.639 218.351C464.129 236.771 445.699 255.271 427.009 273.511C423.179 277.241 422.229 280.881 423.459 285.941C431.459 319.031 439.219 352.181 447.159 385.281C449.319 394.281 449.109 402.871 445.599 411.641C444.069 415.471 444.399 420.101 444.199 424.391C443.939 430.041 444.049 435.701 443.879 441.351C443.349 458.711 429.749 472.151 412.389 472.191C355.669 472.301 298.959 472.311 242.239 472.361C221.279 472.381 200.329 472.391 179.369 472.471C173.839 472.491 168.409 472.041 163.149 470.241C150.259 465.831 141.369 453.681 141.329 440.421C141.329 439.791 141.499 439.161 141.629 438.271C147.119 440.701 151.809 443.641 154.019 449.361C157.469 458.301 164.569 461.801 173.539 462.191C180.019 462.471 186.509 462.311 192.999 462.311C264.689 462.311 336.369 462.311 408.059 462.301C410.379 462.301 412.749 462.341 415.019 461.921C424.739 460.141 431.439 453.341 433.449 443.341C433.769 441.721 433.859 440.041 433.879 438.381C433.939 434.101 433.899 429.811 433.899 425.061C430.739 425.591 428.149 425.931 425.589 426.471C417.409 428.201 409.689 426.701 402.409 422.941C387.809 415.391 373.269 407.711 358.749 400.021C342.459 391.391 326.139 382.821 309.999 373.921C305.309 371.331 301.789 371.491 297.349 374.681C263.889 398.741 230.259 422.581 196.649 446.441C188.119 452.501 178.799 455.191 168.389 452.271C164.109 451.071 161.139 449.091 158.129 445.771C158.389 445.571 158.629 445.281 158.919 445.191C167.329 442.481 172.899 436.531 177.269 429.191C181.159 422.661 186.439 417.671 192.699 413.261C224.379 390.991 255.899 368.481 287.359 345.901C296.529 339.321 305.749 338.201 315.769 343.661C330.209 351.531 344.689 359.311 359.189 367.041C377.659 376.881 396.169 386.631 414.669 396.401C416.079 397.141 417.579 397.701 419.809 398.691H419.819Z" fill="white"/>
<path d="M486.559 142.401V171.691C482.549 171.301 478.789 171.011 475.049 170.561C446.179 167.051 417.309 163.501 388.439 159.981C379.699 158.911 370.959 157.761 362.199 156.911C354.339 156.151 348.959 152.371 345.699 145.141C338.199 128.481 330.549 111.901 322.939 95.2907C313.469 74.6107 303.979 53.9307 294.479 33.2607C293.729 31.6207 292.829 30.0407 291.719 27.8807C288.079 36.5307 284.659 44.5907 281.299 52.6607C268.599 83.1507 255.879 113.631 243.259 144.161C240.169 151.641 234.719 155.831 226.789 156.831C202.719 159.871 178.629 162.821 154.559 165.871C139.559 167.771 124.559 169.761 109.569 171.721C108.939 171.801 108.329 171.991 106.809 172.341C133.629 196.001 160.289 218.831 187.369 242.661C182.879 242.661 179.399 242.581 175.929 242.681C170.119 242.841 164.319 243.111 158.509 243.311C148.179 243.671 139.309 240.011 131.609 233.321C117.929 221.441 104.359 209.451 90.6391 197.621C76.5791 185.501 76.3991 168.781 84.0391 155.691C88.2991 148.381 95.2791 144.411 103.429 142.891C110.609 141.551 117.899 140.791 125.149 139.861C142.619 137.611 160.099 135.411 177.569 133.181C188.609 131.771 199.629 130.061 210.709 129.041C215.939 128.561 218.569 126.311 220.519 121.571C230.229 97.9207 240.239 74.3907 250.159 50.8307C254.469 40.5807 258.829 30.3407 263.139 20.0907C265.359 14.8007 268.419 10.1107 272.869 6.4207C284.349 -3.0793 307.429 -3.1993 317.259 14.0007C320.879 20.3307 323.759 27.0807 326.839 33.7007C339.979 62.0207 353.069 90.3607 366.189 118.691C367.029 120.501 368.019 122.231 368.879 124.031C370.209 126.831 372.399 128.321 375.459 128.691C392.119 130.731 408.779 132.781 425.429 134.851C440.439 136.711 455.439 138.601 470.439 140.471C475.699 141.121 480.959 141.751 486.569 142.431L486.559 142.401Z" fill="white"/>
<path d="M142.359 464.821C143.729 465.441 144.549 465.621 145.139 466.101C149.699 469.791 153.859 473.921 156.489 479.201C160.279 486.841 166.759 489.741 174.699 490.141C179.839 490.401 185.009 490.271 190.169 490.271C259.369 490.301 328.569 490.321 397.769 490.341C399.929 490.341 402.099 490.391 404.249 490.231C411.929 489.661 418.579 486.721 423.019 480.351C426.219 475.751 430.399 472.871 435.629 470.431C436.769 474.061 435.979 477.391 434.629 480.491C429.379 492.581 420.039 499.091 406.939 500.151C404.129 500.381 401.289 500.331 398.459 500.331C353.379 500.341 308.299 500.331 263.219 500.341C234.609 500.341 205.999 500.361 177.389 500.451C170.059 500.471 163.139 499.081 157.009 494.971C149.419 489.881 145.249 482.481 143.529 473.641C142.999 470.931 142.789 468.151 142.359 464.831V464.821Z" fill="white"/>
<path d="M143.659 489.041C145.799 492.331 147.989 495.591 150.069 498.921C151.649 501.451 153.059 504.091 154.599 506.661C159.169 514.271 165.949 518.101 174.799 518.221C181.119 518.311 187.429 518.301 193.749 518.301C242.629 518.281 291.509 518.251 340.379 518.241C358.169 518.241 375.959 518.191 393.749 518.341C403.599 518.421 411.509 515.041 417.199 506.741C419.729 503.041 422.559 501.271 429.009 498.261C429.949 501.181 429.089 503.841 428.149 506.411C423.519 518.981 414.129 525.811 401.269 528.141C397.869 528.761 394.319 528.751 390.839 528.751C331.659 528.651 272.479 528.501 213.289 528.391C200.319 528.371 187.349 528.241 174.389 528.551C156.339 528.981 141.329 513.691 141.519 494.521C141.539 492.781 141.969 491.051 142.209 489.311C142.689 489.221 143.169 489.141 143.659 489.051V489.041Z" fill="white"/>
</g>
<defs>
<linearGradient id="paint0_linear_5_1136" x1="388.282" y1="236.606" x2="204.282" y2="391.106" gradientUnits="userSpaceOnUse">
<stop stop-color="#74CEF2"/>
<stop offset="1" stop-color="white"/>
</linearGradient>
</defs>
</svg>
